<svg id="Layer_1" data-name="Layer 1" xmlns="http://www.w3.org/2000/svg" viewBox="0 0 1008.74 170"><defs><style>.cls-1{fill:#f26924;}</style></defs><rect class="cls-1" x="18.48" width="163.34" height="25.35" rx="10.8"/><rect class="cls-1" x="18.48" y="144.65" width="155.99" height="25.35" rx="10.8"/><rect class="cls-1" y="69.06" width="160.41" height="25.35" rx="10.8"/><path class="cls-1" d="M332.79,227a51.88,51.88,0,0,1-22.56-4.8,54.68,54.68,0,0,1-17.44-13,60.34,60.34,0,0,1-11.35-18.56,58.09,58.09,0,0,1-4-21.2,56.45,56.45,0,0,1,4.24-21.68,61.43,61.43,0,0,1,11.67-18.4A55.29,55.29,0,0,1,311,116.49a52.51,52.51,0,0,1,22.23-4.72,50.61,50.61,0,0,1,22.48,5A54.1,54.1,0,0,1,373.11,130a61.91,61.91,0,0,1,11.12,18.56,58.48,58.48,0,0,1,3.92,21.12,57.8,57.8,0,0,1-4.08,21.52,58.78,58.78,0,0,1-11.51,18.4A54.3,54.3,0,0,1,355,222.33,52.67,52.67,0,0,1,332.79,227Zm-33-57.6a45.48,45.48,0,0,0,2.25,14.24,38.78,38.78,0,0,0,6.48,12.24,30.14,30.14,0,0,0,24.4,11.6,29.53,29.53,0,0,0,14.24-3.28,32.47,32.47,0,0,0,10.32-8.72,37.37,37.37,0,0,0,6.31-12.32,47.19,47.19,0,0,0,2.09-13.76,45.12,45.12,0,0,0-2.24-14.16,38.51,38.51,0,0,0-6.56-12.16,32.15,32.15,0,0,0-10.4-8.48,30.11,30.11,0,0,0-13.93-3.12,29.43,29.43,0,0,0-14,3.28,32.74,32.74,0,0,0-10.39,8.64,37.94,37.94,0,0,0-6.4,12.16A45.52,45.52,0,0,0,299.83,169.37Z" transform="translate(-64.85 -84.02)"/><path class="cls-1" d="M405.27,226.17V112.57h48.16a33,33,0,0,1,14.49,3.2,36.07,36.07,0,0,1,11.43,8.64,40.83,40.83,0,0,1,7.44,12.16,37.34,37.34,0,0,1,2.64,13.76,40.39,40.39,0,0,1-4.32,18.16,36.55,36.55,0,0,1-12.23,14.16,31.87,31.87,0,0,1-18.49,5.44h-27v38.08Zm22.08-57.44H453a12.45,12.45,0,0,0,7.36-2.24,14.77,14.77,0,0,0,5-6.48,24,24,0,0,0,1.84-9.68,21.18,21.18,0,0,0-2.16-10,15.94,15.94,0,0,0-5.6-6.24,13.72,13.72,0,0,0-7.44-2.16H427.35Z" transform="translate(-64.85 -84.02)"/><path class="cls-1" d="M583.83,206.81v19.36H505V112.57h77.44v19.36H527v27.36h47.68v17.92H527v29.6Z" transform="translate(-64.85 -84.02)"/><path class="cls-1" d="M623.19,153.21v73H601.11V112.57h17.76l58.56,74.88V112.73h21.92V226.17H681.11Z" transform="translate(-64.85 -84.02)"/><path class="cls-1" d="M764,226.17V112.57h48a29.75,29.75,0,0,1,13.44,3,34.84,34.84,0,0,1,10.64,8.24,39.15,39.15,0,0,1,7,11.52,35.09,35.09,0,0,1,2.48,12.88,38.21,38.21,0,0,1-3.12,15.36,33.7,33.7,0,0,1-8.8,12.16,28.82,28.82,0,0,1-13.36,6.56l27.84,43.84H835.51l-26.72-41.92h-33.6v41.92Zm11.2-51.84h37.12A19,19,0,0,0,824,170.65a24.37,24.37,0,0,0,7.68-9.68,30.5,30.5,0,0,0,2.72-12.72A26.91,26.91,0,0,0,823,126.09a19.94,19.94,0,0,0-11.6-3.6H775.19Z" transform="translate(-64.85 -84.02)"/><path class="cls-1" d="M944.79,216.25v9.92H868.47V112.57h74.88v9.92H879.67v41h55.52v9.44H879.67v43.36Z" transform="translate(-64.85 -84.02)"/><path class="cls-1" d="M1031.67,133.85a29.44,29.44,0,0,0-5.6-4.88,38.75,38.75,0,0,0-7.2-3.76,52.41,52.41,0,0,0-8.56-2.56,46.94,46.94,0,0,0-9.68-1q-14.88,0-21.84,5.67t-7,15.42q0,6.71,3.28,10.54t10.32,6.23q7,2.4,17.92,5a127.18,127.18,0,0,1,21,6.07q8.79,3.51,13.6,9.5t4.8,16.22a28.76,28.76,0,0,1-3,13.58,27.14,27.14,0,0,1-8.48,9.58,37.94,37.94,0,0,1-13,5.68,69.72,69.72,0,0,1-16.48,1.83,75.55,75.55,0,0,1-16.88-1.84,67.21,67.21,0,0,1-15.28-5.44,60.53,60.53,0,0,1-13.44-9.2l5.6-9.12a40.66,40.66,0,0,0,7.28,6,59.59,59.59,0,0,0,9.44,5,55.42,55.42,0,0,0,11.2,3.44,63.06,63.06,0,0,0,12.4,1.2q13.59,0,21.2-5t7.6-14.69q0-7-3.84-11.26t-11.52-7a175.19,175.19,0,0,0-18.88-5.28,128.72,128.72,0,0,1-20-6.07q-8.16-3.34-12.24-8.86t-4.08-14.62q0-10.55,5.2-17.82a32.15,32.15,0,0,1,14.32-11,54.54,54.54,0,0,1,21-3.76,61.43,61.43,0,0,1,14,1.52,51.3,51.3,0,0,1,12,4.4,49.9,49.9,0,0,1,10.32,7.2Z" transform="translate(-64.85 -84.02)"/><path class="cls-1" d="M1062.39,226.17V112.57h11.2v113.6Z" transform="translate(-64.85 -84.02)"/></svg>